<?xml version="1.0" standalone="no"?>
<!DOCTYPE svg PUBLIC "-//W3C//DTD SVG 20010904//EN"
 "http://www.w3.org/TR/2001/REC-SVG-20010904/DTD/svg10.dtd">
<svg version="1.0" xmlns="http://www.w3.org/2000/svg"
 width="260.000000pt" height="260.000000pt" viewBox="0 0 260.000000 260.000000"
 preserveAspectRatio="xMidYMid meet">
<metadata>
Created by potrace 1.11, written by Peter Selinger 2001-2013
</metadata>
<g transform="translate(0.000000,260.000000) scale(0.100000,-0.100000)"
fill="#000000" stroke="none">
<path d="M1660 2283 c-49 -8 -156 -46 -220 -79 -75 -38 -110 -62 -185 -132
l-54 -50 -53 20 c-77 30 -237 36 -326 13 -79 -21 -167 -65 -218 -109 l-36 -31
66 -58 66 -58 32 25 c69 52 126 70 228 70 106 1 152 -15 241 -79 l48 -36 41
65 c108 170 302 276 507 276 110 0 172 -14 270 -61 185 -88 312 -262 343 -471
10 -72 4 -182 -16 -249 -3 -12 9 -25 40 -43 25 -15 65 -49 88 -76 24 -28 51
-50 62 -50 18 0 18 8 12 213 -4 116 -14 242 -21 278 -63 302 -282 533 -579
609 -60 15 -108 20 -195 19 -64 -1 -127 -4 -141 -6z"/>
<path d="M390 1962 c0 -5 20 -32 45 -61 25 -30 44 -56 41 -58 -2 -2 -18 3 -36
12 -17 9 -39 14 -48 12 -13 -3 -2 -18 43 -62 48 -46 54 -55 28 -42 -59 31 -72
20 -28 -21 22 -20 54 -48 70 -60 l30 -23 -43 6 c-36 6 -41 4 -36 -9 4 -9 27
-31 52 -48 l46 -32 -27 -9 -27 -9 30 -38 c29 -37 29 -38 10 -51 -17 -13 -18
-21 -11 -79 6 -46 5 -72 -4 -90 -6 -14 -22 -47 -35 -73 -13 -26 -37 -60 -54
-74 -43 -37 -133 -76 -175 -77 -32 -1 -38 3 -56 39 -30 61 -29 222 3 287 44
90 90 130 220 195 2 1 -2 12 -9 24 -6 13 -12 35 -11 50 0 17 -10 37 -28 54
l-29 28 -67 -33 c-42 -20 -90 -56 -129 -95 -182 -182 -204 -465 -52 -678 54
-76 116 -124 219 -171 164 -75 314 -90 808 -81 195 3 456 13 580 21 124 8 276
17 338 21 62 3 110 9 107 12 -5 5 -133 18 -403 40 -84 8 -122 15 -146 31 -44
26 -68 25 -157 -7 -65 -23 -90 -27 -199 -27 -120 -1 -128 0 -184 29 -51 25
-62 36 -74 70 -25 69 -19 215 12 330 57 211 55 240 -23 280 -66 33 -126 82
-302 248 -187 176 -248 227 -271 227 -10 0 -18 -4 -18 -8z"/>
<path d="M1808 1643 c-10 -2 -36 -50 -66 -121 -27 -64 -100 -233 -161 -374
-61 -142 -111 -259 -111 -260 0 -2 30 -4 68 -4 37 -1 76 -3 86 -5 17 -3 36 34
140 273 67 152 124 279 127 282 4 4 25 -40 49 -96 51 -124 390 -917 416 -973
11 -22 24 -43 29 -47 13 -10 162 -10 168 0 3 4 -122 304 -278 667 l-283 660
-83 2 c-46 0 -91 -1 -101 -4z"/>
<path d="M2588 1105 c2 -14 6 -25 8 -25 2 0 4 11 4 25 0 14 -4 25 -9 25 -4 0
-6 -11 -3 -25z"/>
<path d="M1297 490 c-38 -88 -66 -164 -62 -170 3 -5 41 -10 84 -10 l79 0 71
164 c39 90 71 166 71 170 0 3 -39 6 -87 6 l-88 0 -68 -160z"/>
</g>
</svg>
