<?xml version="1.0" encoding="utf-8"?>
<!-- Svg Vector Icons : http://www.onlinewebfonts.com/icon -->
<!DOCTYPE svg PUBLIC "-//W3C//DTD SVG 1.1//EN" "http://www.w3.org/Graphics/SVG/1.1/DTD/svg11.dtd">
<svg style="width: 50px" version="1.1" xmlns="http://www.w3.org/2000/svg" xmlns:xlink="http://www.w3.org/1999/xlink" x="0px" y="0px" viewBox="0 0 1000 1000" enable-background="new 0 0 1000 1000" xml:space="preserve">
<metadata> Svg Vector Icons : http://www.onlinewebfonts.com/icon </metadata>
<g><g><g><path style="width: 50px" stroke="#fff" fill="#000000" d="M299.7,990h-27.3c-24.9,0-46.5-18.7-48.2-41.7l0.3-88.7c-41.1-23.7-66.6-67.5-66.6-115V499.1H88.5V376.6h-23V137.8h61.6v238.8H99.2v111.8h58.7V142.7C157.9,69.6,217.4,10,290.6,10h420.7C784.5,10,844,69.6,844,142.7v347.4h50.6V389.9h-21.7V151.1h61.7v238.8h-29.3v110.9H844v243.7c0,48.8-26.5,93.2-69.3,116.5l-2,86.6c-4.9,22.5-23.7,37.5-45.7,37.5h-28.1c-13.8-0.8-42.7-2.3-45.5-32.7h-0.2l-0.2-4.9v-80.6h-307l-0.1,80.6C344.1,971.5,323.8,990,299.7,990z M167.7,489.2v255.2c0,44.9,24.5,86.2,64,107.8l2.5,1.4l-0.2,94.2c1.3,17.3,18.9,32.3,38.4,32.3h27.3c19,0,35-14.5,36.4-33.1l0.2-90.2h326.7l0.1,90.5c0,23.8,17.4,26.7,35.2,27.7H727c17.4,0,32.2-11.9,36-28.8l2-91.5l2.6-1.3c41-21.2,66.5-63,66.5-109.1V142.7C834.1,75,779,19.9,711.3,19.9H290.6c-67.8,0-122.9,55.1-122.9,122.9L167.7,489.2L167.7,489.2z M895.4,380.1h29.3V160.9h-42v219.1L895.4,380.1L895.4,380.1z M89.3,366.7h27.9V147.6H75.4v219.1L89.3,366.7L89.3,366.7z M790.7,744h-175v-84.4h175V744L790.7,744z M625.7,734.2h155.2v-64.7H625.7V734.2z M391.4,744H216.5v-84.4h174.9V744z M226.3,734.2h155.2v-64.7H226.3V734.2z M498.3,605.6c-256.4,0-285.9-100.6-287-104.9l-0.1-1.3V143.1h579.6L790.5,501C789.2,505.2,754.5,605.6,498.3,605.6z M221,498.7c2.6,7.6,38.8,97,277.3,97c237.5,0,279.2-88.8,282.6-97.1V152.9H221V498.7z M657.6,115.7h-308V36.6h308V115.7z M359.4,105.8h288.3V46.4H359.4V105.8z"/></g></g><g></g><g></g><g></g><g></g><g></g><g></g><g></g><g></g><g></g><g></g><g></g><g></g><g></g><g></g><g></g></g>
</svg>